<svg width="1069" height="345" viewBox="0 0 1069 345" fill="none" xmlns="http://www.w3.org/2000/svg">
<path d="M206.828 310.625H208.328V318.32C208.328 319.174 208.138 319.885 207.758 320.453C207.378 321.021 206.872 321.448 206.242 321.734C205.617 322.016 204.938 322.156 204.203 322.156C203.432 322.156 202.734 322.016 202.109 321.734C201.49 321.448 200.997 321.021 200.633 320.453C200.273 319.885 200.094 319.174 200.094 318.32V310.625H201.586V318.32C201.586 318.914 201.695 319.404 201.914 319.789C202.133 320.174 202.438 320.461 202.828 320.648C203.224 320.836 203.682 320.93 204.203 320.93C204.729 320.93 205.188 320.836 205.578 320.648C205.974 320.461 206.281 320.174 206.5 319.789C206.719 319.404 206.828 318.914 206.828 318.32V310.625ZM212.203 310.625V322H210.695V310.625H212.203ZM219.07 310.625L214.344 315.93L211.688 318.688L211.438 317.078L213.438 314.875L217.258 310.625H219.07ZM217.617 322L213.406 316.453L214.305 315.258L219.414 322H217.617Z" fill="#757575"/>
<path d="M282.094 318.68V310.625H283.594V318.68C283.594 319.43 283.44 320.062 283.133 320.578C282.826 321.094 282.401 321.487 281.859 321.758C281.323 322.023 280.706 322.156 280.008 322.156C279.31 322.156 278.69 322.036 278.148 321.797C277.607 321.557 277.182 321.193 276.875 320.703C276.568 320.214 276.414 319.596 276.414 318.852H277.922C277.922 319.331 278.01 319.724 278.188 320.031C278.365 320.339 278.609 320.565 278.922 320.711C279.24 320.857 279.602 320.93 280.008 320.93C280.404 320.93 280.758 320.846 281.07 320.68C281.388 320.508 281.638 320.255 281.82 319.922C282.003 319.583 282.094 319.169 282.094 318.68ZM290.914 320.555V316.203C290.914 315.87 290.846 315.581 290.711 315.336C290.581 315.086 290.383 314.893 290.117 314.758C289.852 314.622 289.523 314.555 289.133 314.555C288.768 314.555 288.448 314.617 288.172 314.742C287.901 314.867 287.688 315.031 287.531 315.234C287.38 315.438 287.305 315.656 287.305 315.891H285.859C285.859 315.589 285.938 315.289 286.094 314.992C286.25 314.695 286.474 314.427 286.766 314.188C287.062 313.943 287.417 313.75 287.828 313.609C288.245 313.464 288.708 313.391 289.219 313.391C289.833 313.391 290.375 313.495 290.844 313.703C291.318 313.911 291.688 314.227 291.953 314.648C292.224 315.065 292.359 315.589 292.359 316.219V320.156C292.359 320.438 292.383 320.737 292.43 321.055C292.482 321.372 292.557 321.646 292.656 321.875V322H291.148C291.076 321.833 291.018 321.612 290.977 321.336C290.935 321.055 290.914 320.794 290.914 320.555ZM291.164 316.875L291.18 317.891H289.719C289.307 317.891 288.94 317.924 288.617 317.992C288.294 318.055 288.023 318.151 287.805 318.281C287.586 318.411 287.419 318.576 287.305 318.773C287.19 318.966 287.133 319.193 287.133 319.453C287.133 319.719 287.193 319.961 287.312 320.18C287.432 320.398 287.612 320.573 287.852 320.703C288.096 320.828 288.396 320.891 288.75 320.891C289.193 320.891 289.583 320.797 289.922 320.609C290.26 320.422 290.529 320.193 290.727 319.922C290.93 319.651 291.039 319.388 291.055 319.133L291.672 319.828C291.635 320.047 291.536 320.289 291.375 320.555C291.214 320.82 290.997 321.076 290.727 321.32C290.461 321.56 290.143 321.76 289.773 321.922C289.409 322.078 288.997 322.156 288.539 322.156C287.966 322.156 287.464 322.044 287.031 321.82C286.604 321.596 286.271 321.297 286.031 320.922C285.797 320.542 285.68 320.117 285.68 319.648C285.68 319.195 285.768 318.797 285.945 318.453C286.122 318.104 286.378 317.815 286.711 317.586C287.044 317.352 287.445 317.174 287.914 317.055C288.383 316.935 288.906 316.875 289.484 316.875H291.164ZM296.078 315.172V325.25H294.625V313.547H295.953L296.078 315.172ZM301.773 317.703V317.867C301.773 318.482 301.701 319.052 301.555 319.578C301.409 320.099 301.195 320.552 300.914 320.938C300.638 321.323 300.297 321.622 299.891 321.836C299.484 322.049 299.018 322.156 298.492 322.156C297.956 322.156 297.482 322.068 297.07 321.891C296.659 321.714 296.31 321.456 296.023 321.117C295.737 320.779 295.508 320.372 295.336 319.898C295.169 319.424 295.055 318.891 294.992 318.297V317.422C295.055 316.797 295.172 316.237 295.344 315.742C295.516 315.247 295.742 314.826 296.023 314.477C296.31 314.122 296.656 313.854 297.062 313.672C297.469 313.484 297.938 313.391 298.469 313.391C299 313.391 299.471 313.495 299.883 313.703C300.294 313.906 300.641 314.198 300.922 314.578C301.203 314.958 301.414 315.414 301.555 315.945C301.701 316.471 301.773 317.057 301.773 317.703ZM300.32 317.867V317.703C300.32 317.281 300.276 316.885 300.188 316.516C300.099 316.141 299.961 315.812 299.773 315.531C299.591 315.245 299.357 315.021 299.07 314.859C298.784 314.693 298.443 314.609 298.047 314.609C297.682 314.609 297.365 314.672 297.094 314.797C296.828 314.922 296.602 315.091 296.414 315.305C296.227 315.513 296.073 315.753 295.953 316.023C295.839 316.289 295.753 316.565 295.695 316.852V318.875C295.799 319.24 295.945 319.583 296.133 319.906C296.32 320.224 296.57 320.482 296.883 320.68C297.195 320.872 297.589 320.969 298.062 320.969C298.453 320.969 298.789 320.888 299.07 320.727C299.357 320.56 299.591 320.333 299.773 320.047C299.961 319.76 300.099 319.432 300.188 319.062C300.276 318.688 300.32 318.289 300.32 317.867ZM308.602 320.555V316.203C308.602 315.87 308.534 315.581 308.398 315.336C308.268 315.086 308.07 314.893 307.805 314.758C307.539 314.622 307.211 314.555 306.82 314.555C306.456 314.555 306.135 314.617 305.859 314.742C305.589 314.867 305.375 315.031 305.219 315.234C305.068 315.438 304.992 315.656 304.992 315.891H303.547C303.547 315.589 303.625 315.289 303.781 314.992C303.938 314.695 304.161 314.427 304.453 314.188C304.75 313.943 305.104 313.75 305.516 313.609C305.932 313.464 306.396 313.391 306.906 313.391C307.521 313.391 308.062 313.495 308.531 313.703C309.005 313.911 309.375 314.227 309.641 314.648C309.911 315.065 310.047 315.589 310.047 316.219V320.156C310.047 320.438 310.07 320.737 310.117 321.055C310.169 321.372 310.245 321.646 310.344 321.875V322H308.836C308.763 321.833 308.706 321.612 308.664 321.336C308.622 321.055 308.602 320.794 308.602 320.555ZM308.852 316.875L308.867 317.891H307.406C306.995 317.891 306.628 317.924 306.305 317.992C305.982 318.055 305.711 318.151 305.492 318.281C305.273 318.411 305.107 318.576 304.992 318.773C304.878 318.966 304.82 319.193 304.82 319.453C304.82 319.719 304.88 319.961 305 320.18C305.12 320.398 305.299 320.573 305.539 320.703C305.784 320.828 306.083 320.891 306.438 320.891C306.88 320.891 307.271 320.797 307.609 320.609C307.948 320.422 308.216 320.193 308.414 319.922C308.617 319.651 308.727 319.388 308.742 319.133L309.359 319.828C309.323 320.047 309.224 320.289 309.062 320.555C308.901 320.82 308.685 321.076 308.414 321.32C308.148 321.56 307.831 321.76 307.461 321.922C307.096 322.078 306.685 322.156 306.227 322.156C305.654 322.156 305.151 322.044 304.719 321.82C304.292 321.596 303.958 321.297 303.719 320.922C303.484 320.542 303.367 320.117 303.367 319.648C303.367 319.195 303.456 318.797 303.633 318.453C303.81 318.104 304.065 317.815 304.398 317.586C304.732 317.352 305.133 317.174 305.602 317.055C306.07 316.935 306.594 316.875 307.172 316.875H308.852ZM313.766 315.352V322H312.32V313.547H313.688L313.766 315.352ZM313.422 317.453L312.82 317.43C312.826 316.852 312.911 316.318 313.078 315.828C313.245 315.333 313.479 314.904 313.781 314.539C314.083 314.174 314.443 313.893 314.859 313.695C315.281 313.492 315.747 313.391 316.258 313.391C316.674 313.391 317.049 313.448 317.383 313.562C317.716 313.672 318 313.849 318.234 314.094C318.474 314.339 318.656 314.656 318.781 315.047C318.906 315.432 318.969 315.904 318.969 316.461V322H317.516V316.445C317.516 316.003 317.451 315.648 317.32 315.383C317.19 315.112 317 314.917 316.75 314.797C316.5 314.672 316.193 314.609 315.828 314.609C315.469 314.609 315.141 314.685 314.844 314.836C314.552 314.987 314.299 315.195 314.086 315.461C313.878 315.727 313.714 316.031 313.594 316.375C313.479 316.714 313.422 317.073 313.422 317.453Z" fill="#757575"/>
<path d="M363.727 316.336V320.5C363.586 320.708 363.362 320.943 363.055 321.203C362.747 321.458 362.323 321.682 361.781 321.875C361.245 322.062 360.552 322.156 359.703 322.156C359.01 322.156 358.372 322.036 357.789 321.797C357.211 321.552 356.708 321.198 356.281 320.734C355.859 320.266 355.531 319.698 355.297 319.031C355.068 318.359 354.953 317.599 354.953 316.75V315.867C354.953 315.018 355.052 314.26 355.25 313.594C355.453 312.927 355.75 312.362 356.141 311.898C356.531 311.43 357.01 311.076 357.578 310.836C358.146 310.591 358.797 310.469 359.531 310.469C360.401 310.469 361.128 310.62 361.711 310.922C362.299 311.219 362.758 311.63 363.086 312.156C363.419 312.682 363.633 313.281 363.727 313.953H362.219C362.151 313.542 362.016 313.167 361.812 312.828C361.615 312.49 361.331 312.219 360.961 312.016C360.591 311.807 360.115 311.703 359.531 311.703C359.005 311.703 358.549 311.799 358.164 311.992C357.779 312.185 357.461 312.461 357.211 312.82C356.961 313.18 356.773 313.615 356.648 314.125C356.529 314.635 356.469 315.211 356.469 315.852V316.75C356.469 317.406 356.544 317.992 356.695 318.508C356.852 319.023 357.073 319.464 357.359 319.828C357.646 320.188 357.987 320.461 358.383 320.648C358.784 320.836 359.227 320.93 359.711 320.93C360.247 320.93 360.682 320.885 361.016 320.797C361.349 320.703 361.609 320.594 361.797 320.469C361.984 320.339 362.128 320.216 362.227 320.102V317.555H359.594V316.336H363.727ZM369.516 322.156C368.927 322.156 368.393 322.057 367.914 321.859C367.44 321.656 367.031 321.372 366.688 321.008C366.349 320.643 366.089 320.211 365.906 319.711C365.724 319.211 365.633 318.664 365.633 318.07V317.742C365.633 317.055 365.734 316.443 365.938 315.906C366.141 315.365 366.417 314.906 366.766 314.531C367.115 314.156 367.51 313.872 367.953 313.68C368.396 313.487 368.854 313.391 369.328 313.391C369.932 313.391 370.453 313.495 370.891 313.703C371.333 313.911 371.695 314.203 371.977 314.578C372.258 314.948 372.466 315.385 372.602 315.891C372.737 316.391 372.805 316.938 372.805 317.531V318.18H366.492V317H371.359V316.891C371.339 316.516 371.26 316.151 371.125 315.797C370.995 315.443 370.786 315.151 370.5 314.922C370.214 314.693 369.823 314.578 369.328 314.578C369 314.578 368.698 314.648 368.422 314.789C368.146 314.924 367.909 315.128 367.711 315.398C367.513 315.669 367.359 316 367.25 316.391C367.141 316.781 367.086 317.232 367.086 317.742V318.07C367.086 318.471 367.141 318.849 367.25 319.203C367.365 319.552 367.529 319.859 367.742 320.125C367.961 320.391 368.224 320.599 368.531 320.75C368.844 320.901 369.198 320.977 369.594 320.977C370.104 320.977 370.536 320.872 370.891 320.664C371.245 320.456 371.555 320.177 371.82 319.828L372.695 320.523C372.513 320.799 372.281 321.062 372 321.312C371.719 321.562 371.372 321.766 370.961 321.922C370.555 322.078 370.073 322.156 369.516 322.156ZM375.938 314.875V322H374.492V313.547H375.898L375.938 314.875ZM378.578 313.5L378.57 314.844C378.451 314.818 378.336 314.802 378.227 314.797C378.122 314.786 378.003 314.781 377.867 314.781C377.534 314.781 377.24 314.833 376.984 314.938C376.729 315.042 376.513 315.188 376.336 315.375C376.159 315.562 376.018 315.786 375.914 316.047C375.815 316.302 375.75 316.583 375.719 316.891L375.312 317.125C375.312 316.615 375.362 316.135 375.461 315.688C375.565 315.24 375.724 314.844 375.938 314.5C376.151 314.151 376.422 313.88 376.75 313.688C377.083 313.49 377.479 313.391 377.938 313.391C378.042 313.391 378.161 313.404 378.297 313.43C378.432 313.451 378.526 313.474 378.578 313.5ZM381.352 315.227V322H379.898V313.547H381.273L381.352 315.227ZM381.055 317.453L380.383 317.43C380.388 316.852 380.464 316.318 380.609 315.828C380.755 315.333 380.971 314.904 381.258 314.539C381.544 314.174 381.901 313.893 382.328 313.695C382.755 313.492 383.25 313.391 383.812 313.391C384.208 313.391 384.573 313.448 384.906 313.562C385.24 313.672 385.529 313.846 385.773 314.086C386.018 314.326 386.208 314.633 386.344 315.008C386.479 315.383 386.547 315.836 386.547 316.367V322H385.102V316.438C385.102 315.995 385.026 315.641 384.875 315.375C384.729 315.109 384.521 314.917 384.25 314.797C383.979 314.672 383.661 314.609 383.297 314.609C382.87 314.609 382.513 314.685 382.227 314.836C381.94 314.987 381.711 315.195 381.539 315.461C381.367 315.727 381.242 316.031 381.164 316.375C381.091 316.714 381.055 317.073 381.055 317.453ZM386.531 316.656L385.562 316.953C385.568 316.49 385.643 316.044 385.789 315.617C385.94 315.19 386.156 314.81 386.438 314.477C386.724 314.143 387.076 313.88 387.492 313.688C387.909 313.49 388.385 313.391 388.922 313.391C389.375 313.391 389.776 313.451 390.125 313.57C390.479 313.69 390.776 313.875 391.016 314.125C391.26 314.37 391.445 314.685 391.57 315.07C391.695 315.456 391.758 315.914 391.758 316.445V322H390.305V316.43C390.305 315.956 390.229 315.589 390.078 315.328C389.932 315.062 389.724 314.878 389.453 314.773C389.188 314.664 388.87 314.609 388.5 314.609C388.182 314.609 387.901 314.664 387.656 314.773C387.411 314.883 387.206 315.034 387.039 315.227C386.872 315.414 386.745 315.63 386.656 315.875C386.573 316.12 386.531 316.38 386.531 316.656ZM398.93 320.555V316.203C398.93 315.87 398.862 315.581 398.727 315.336C398.596 315.086 398.398 314.893 398.133 314.758C397.867 314.622 397.539 314.555 397.148 314.555C396.784 314.555 396.464 314.617 396.188 314.742C395.917 314.867 395.703 315.031 395.547 315.234C395.396 315.438 395.32 315.656 395.32 315.891H393.875C393.875 315.589 393.953 315.289 394.109 314.992C394.266 314.695 394.49 314.427 394.781 314.188C395.078 313.943 395.432 313.75 395.844 313.609C396.26 313.464 396.724 313.391 397.234 313.391C397.849 313.391 398.391 313.495 398.859 313.703C399.333 313.911 399.703 314.227 399.969 314.648C400.24 315.065 400.375 315.589 400.375 316.219V320.156C400.375 320.438 400.398 320.737 400.445 321.055C400.497 321.372 400.573 321.646 400.672 321.875V322H399.164C399.091 321.833 399.034 321.612 398.992 321.336C398.951 321.055 398.93 320.794 398.93 320.555ZM399.18 316.875L399.195 317.891H397.734C397.323 317.891 396.956 317.924 396.633 317.992C396.31 318.055 396.039 318.151 395.82 318.281C395.602 318.411 395.435 318.576 395.32 318.773C395.206 318.966 395.148 319.193 395.148 319.453C395.148 319.719 395.208 319.961 395.328 320.18C395.448 320.398 395.628 320.573 395.867 320.703C396.112 320.828 396.411 320.891 396.766 320.891C397.208 320.891 397.599 320.797 397.938 320.609C398.276 320.422 398.544 320.193 398.742 319.922C398.945 319.651 399.055 319.388 399.07 319.133L399.688 319.828C399.651 320.047 399.552 320.289 399.391 320.555C399.229 320.82 399.013 321.076 398.742 321.32C398.477 321.56 398.159 321.76 397.789 321.922C397.424 322.078 397.013 322.156 396.555 322.156C395.982 322.156 395.479 322.044 395.047 321.82C394.62 321.596 394.286 321.297 394.047 320.922C393.812 320.542 393.695 320.117 393.695 319.648C393.695 319.195 393.784 318.797 393.961 318.453C394.138 318.104 394.393 317.815 394.727 317.586C395.06 317.352 395.461 317.174 395.93 317.055C396.398 316.935 396.922 316.875 397.5 316.875H399.18ZM404.094 315.352V322H402.648V313.547H404.016L404.094 315.352ZM403.75 317.453L403.148 317.43C403.154 316.852 403.24 316.318 403.406 315.828C403.573 315.333 403.807 314.904 404.109 314.539C404.411 314.174 404.771 313.893 405.188 313.695C405.609 313.492 406.076 313.391 406.586 313.391C407.003 313.391 407.378 313.448 407.711 313.562C408.044 313.672 408.328 313.849 408.562 314.094C408.802 314.339 408.984 314.656 409.109 315.047C409.234 315.432 409.297 315.904 409.297 316.461V322H407.844V316.445C407.844 316.003 407.779 315.648 407.648 315.383C407.518 315.112 407.328 314.917 407.078 314.797C406.828 314.672 406.521 314.609 406.156 314.609C405.797 314.609 405.469 314.685 405.172 314.836C404.88 314.987 404.628 315.195 404.414 315.461C404.206 315.727 404.042 316.031 403.922 316.375C403.807 316.714 403.75 317.073 403.75 317.453ZM413.867 321.125L416.219 313.547H417.766L414.375 323.305C414.297 323.513 414.193 323.737 414.062 323.977C413.938 324.221 413.776 324.453 413.578 324.672C413.38 324.891 413.141 325.068 412.859 325.203C412.583 325.344 412.253 325.414 411.867 325.414C411.753 325.414 411.607 325.398 411.43 325.367C411.253 325.336 411.128 325.31 411.055 325.289L411.047 324.117C411.089 324.122 411.154 324.128 411.242 324.133C411.336 324.143 411.401 324.148 411.438 324.148C411.766 324.148 412.044 324.104 412.273 324.016C412.503 323.932 412.695 323.789 412.852 323.586C413.013 323.388 413.151 323.115 413.266 322.766L413.867 321.125ZM412.141 313.547L414.336 320.109L414.711 321.633L413.672 322.164L410.562 313.547H412.141Z" fill="#757575"/>
<path d="M550.188 318.383H551.688C551.609 319.102 551.404 319.745 551.07 320.312C550.737 320.88 550.266 321.331 549.656 321.664C549.047 321.992 548.286 322.156 547.375 322.156C546.708 322.156 546.102 322.031 545.555 321.781C545.013 321.531 544.547 321.177 544.156 320.719C543.766 320.255 543.464 319.701 543.25 319.055C543.042 318.404 542.938 317.68 542.938 316.883V315.75C542.938 314.953 543.042 314.232 543.25 313.586C543.464 312.935 543.768 312.378 544.164 311.914C544.565 311.451 545.047 311.094 545.609 310.844C546.172 310.594 546.805 310.469 547.508 310.469C548.367 310.469 549.094 310.63 549.688 310.953C550.281 311.276 550.742 311.724 551.07 312.297C551.404 312.865 551.609 313.523 551.688 314.273H550.188C550.115 313.742 549.979 313.286 549.781 312.906C549.583 312.521 549.302 312.224 548.938 312.016C548.573 311.807 548.096 311.703 547.508 311.703C547.003 311.703 546.557 311.799 546.172 311.992C545.792 312.185 545.471 312.458 545.211 312.812C544.956 313.167 544.763 313.591 544.633 314.086C544.503 314.581 544.438 315.13 544.438 315.734V316.883C544.438 317.44 544.495 317.964 544.609 318.453C544.729 318.943 544.909 319.372 545.148 319.742C545.388 320.112 545.693 320.404 546.062 320.617C546.432 320.826 546.87 320.93 547.375 320.93C548.016 320.93 548.526 320.828 548.906 320.625C549.286 320.422 549.573 320.13 549.766 319.75C549.964 319.37 550.104 318.914 550.188 318.383ZM554.969 310V322H553.523V310H554.969ZM554.625 317.453L554.023 317.43C554.029 316.852 554.115 316.318 554.281 315.828C554.448 315.333 554.682 314.904 554.984 314.539C555.286 314.174 555.646 313.893 556.062 313.695C556.484 313.492 556.951 313.391 557.461 313.391C557.878 313.391 558.253 313.448 558.586 313.562C558.919 313.672 559.203 313.849 559.438 314.094C559.677 314.339 559.859 314.656 559.984 315.047C560.109 315.432 560.172 315.904 560.172 316.461V322H558.719V316.445C558.719 316.003 558.654 315.648 558.523 315.383C558.393 315.112 558.203 314.917 557.953 314.797C557.703 314.672 557.396 314.609 557.031 314.609C556.672 314.609 556.344 314.685 556.047 314.836C555.755 314.987 555.503 315.195 555.289 315.461C555.081 315.727 554.917 316.031 554.797 316.375C554.682 316.714 554.625 317.073 554.625 317.453ZM563.906 313.547V322H562.453V313.547H563.906ZM562.344 311.305C562.344 311.07 562.414 310.872 562.555 310.711C562.701 310.549 562.914 310.469 563.195 310.469C563.471 310.469 563.682 310.549 563.828 310.711C563.979 310.872 564.055 311.07 564.055 311.305C564.055 311.529 563.979 311.721 563.828 311.883C563.682 312.039 563.471 312.117 563.195 312.117C562.914 312.117 562.701 312.039 562.555 311.883C562.414 311.721 562.344 311.529 562.344 311.305ZM567.672 315.352V322H566.227V313.547H567.594L567.672 315.352ZM567.328 317.453L566.727 317.43C566.732 316.852 566.818 316.318 566.984 315.828C567.151 315.333 567.385 314.904 567.688 314.539C567.99 314.174 568.349 313.893 568.766 313.695C569.188 313.492 569.654 313.391 570.164 313.391C570.581 313.391 570.956 313.448 571.289 313.562C571.622 313.672 571.906 313.849 572.141 314.094C572.38 314.339 572.562 314.656 572.688 315.047C572.812 315.432 572.875 315.904 572.875 316.461V322H571.422V316.445C571.422 316.003 571.357 315.648 571.227 315.383C571.096 315.112 570.906 314.917 570.656 314.797C570.406 314.672 570.099 314.609 569.734 314.609C569.375 314.609 569.047 314.685 568.75 314.836C568.458 314.987 568.206 315.195 567.992 315.461C567.784 315.727 567.62 316.031 567.5 316.375C567.385 316.714 567.328 317.073 567.328 317.453ZM580.055 320.555V316.203C580.055 315.87 579.987 315.581 579.852 315.336C579.721 315.086 579.523 314.893 579.258 314.758C578.992 314.622 578.664 314.555 578.273 314.555C577.909 314.555 577.589 314.617 577.312 314.742C577.042 314.867 576.828 315.031 576.672 315.234C576.521 315.438 576.445 315.656 576.445 315.891H575C575 315.589 575.078 315.289 575.234 314.992C575.391 314.695 575.615 314.427 575.906 314.188C576.203 313.943 576.557 313.75 576.969 313.609C577.385 313.464 577.849 313.391 578.359 313.391C578.974 313.391 579.516 313.495 579.984 313.703C580.458 313.911 580.828 314.227 581.094 314.648C581.365 315.065 581.5 315.589 581.5 316.219V320.156C581.5 320.438 581.523 320.737 581.57 321.055C581.622 321.372 581.698 321.646 581.797 321.875V322H580.289C580.216 321.833 580.159 321.612 580.117 321.336C580.076 321.055 580.055 320.794 580.055 320.555ZM580.305 316.875L580.32 317.891H578.859C578.448 317.891 578.081 317.924 577.758 317.992C577.435 318.055 577.164 318.151 576.945 318.281C576.727 318.411 576.56 318.576 576.445 318.773C576.331 318.966 576.273 319.193 576.273 319.453C576.273 319.719 576.333 319.961 576.453 320.18C576.573 320.398 576.753 320.573 576.992 320.703C577.237 320.828 577.536 320.891 577.891 320.891C578.333 320.891 578.724 320.797 579.062 320.609C579.401 320.422 579.669 320.193 579.867 319.922C580.07 319.651 580.18 319.388 580.195 319.133L580.812 319.828C580.776 320.047 580.677 320.289 580.516 320.555C580.354 320.82 580.138 321.076 579.867 321.32C579.602 321.56 579.284 321.76 578.914 321.922C578.549 322.078 578.138 322.156 577.68 322.156C577.107 322.156 576.604 322.044 576.172 321.82C575.745 321.596 575.411 321.297 575.172 320.922C574.938 320.542 574.82 320.117 574.82 319.648C574.82 319.195 574.909 318.797 575.086 318.453C575.263 318.104 575.518 317.815 575.852 317.586C576.185 317.352 576.586 317.174 577.055 317.055C577.523 316.935 578.047 316.875 578.625 316.875H580.305Z" fill="#757575"/>
<path d="M635.938 310.625V322H634.43V310.625H635.938ZM639.906 315.352V322H638.461V313.547H639.828L639.906 315.352ZM639.562 317.453L638.961 317.43C638.966 316.852 639.052 316.318 639.219 315.828C639.385 315.333 639.62 314.904 639.922 314.539C640.224 314.174 640.583 313.893 641 313.695C641.422 313.492 641.888 313.391 642.398 313.391C642.815 313.391 643.19 313.448 643.523 313.562C643.857 313.672 644.141 313.849 644.375 314.094C644.615 314.339 644.797 314.656 644.922 315.047C645.047 315.432 645.109 315.904 645.109 316.461V322H643.656V316.445C643.656 316.003 643.591 315.648 643.461 315.383C643.331 315.112 643.141 314.917 642.891 314.797C642.641 314.672 642.333 314.609 641.969 314.609C641.609 314.609 641.281 314.685 640.984 314.836C640.693 314.987 640.44 315.195 640.227 315.461C640.018 315.727 639.854 316.031 639.734 316.375C639.62 316.714 639.562 317.073 639.562 317.453ZM652.633 320.359V310H654.086V322H652.758L652.633 320.359ZM646.945 317.867V317.703C646.945 317.057 647.023 316.471 647.18 315.945C647.341 315.414 647.568 314.958 647.859 314.578C648.156 314.198 648.508 313.906 648.914 313.703C649.326 313.495 649.784 313.391 650.289 313.391C650.82 313.391 651.284 313.484 651.68 313.672C652.081 313.854 652.419 314.122 652.695 314.477C652.977 314.826 653.198 315.247 653.359 315.742C653.521 316.237 653.633 316.797 653.695 317.422V318.141C653.638 318.76 653.526 319.318 653.359 319.812C653.198 320.307 652.977 320.729 652.695 321.078C652.419 321.427 652.081 321.695 651.68 321.883C651.279 322.065 650.81 322.156 650.273 322.156C649.779 322.156 649.326 322.049 648.914 321.836C648.508 321.622 648.156 321.323 647.859 320.938C647.568 320.552 647.341 320.099 647.18 319.578C647.023 319.052 646.945 318.482 646.945 317.867ZM648.398 317.703V317.867C648.398 318.289 648.44 318.685 648.523 319.055C648.612 319.424 648.747 319.75 648.93 320.031C649.112 320.312 649.344 320.534 649.625 320.695C649.906 320.852 650.242 320.93 650.633 320.93C651.112 320.93 651.505 320.828 651.812 320.625C652.125 320.422 652.375 320.154 652.562 319.82C652.75 319.487 652.896 319.125 653 318.734V316.852C652.938 316.565 652.846 316.289 652.727 316.023C652.612 315.753 652.461 315.513 652.273 315.305C652.091 315.091 651.865 314.922 651.594 314.797C651.328 314.672 651.013 314.609 650.648 314.609C650.253 314.609 649.911 314.693 649.625 314.859C649.344 315.021 649.112 315.245 648.93 315.531C648.747 315.812 648.612 316.141 648.523 316.516C648.44 316.885 648.398 317.281 648.398 317.703ZM657.906 313.547V322H656.453V313.547H657.906ZM656.344 311.305C656.344 311.07 656.414 310.872 656.555 310.711C656.701 310.549 656.914 310.469 657.195 310.469C657.471 310.469 657.682 310.549 657.828 310.711C657.979 310.872 658.055 311.07 658.055 311.305C658.055 311.529 657.979 311.721 657.828 311.883C657.682 312.039 657.471 312.117 657.195 312.117C656.914 312.117 656.701 312.039 656.555 311.883C656.414 311.721 656.344 311.529 656.344 311.305ZM665.211 320.555V316.203C665.211 315.87 665.143 315.581 665.008 315.336C664.878 315.086 664.68 314.893 664.414 314.758C664.148 314.622 663.82 314.555 663.43 314.555C663.065 314.555 662.745 314.617 662.469 314.742C662.198 314.867 661.984 315.031 661.828 315.234C661.677 315.438 661.602 315.656 661.602 315.891H660.156C660.156 315.589 660.234 315.289 660.391 314.992C660.547 314.695 660.771 314.427 661.062 314.188C661.359 313.943 661.714 313.75 662.125 313.609C662.542 313.464 663.005 313.391 663.516 313.391C664.13 313.391 664.672 313.495 665.141 313.703C665.615 313.911 665.984 314.227 666.25 314.648C666.521 315.065 666.656 315.589 666.656 316.219V320.156C666.656 320.438 666.68 320.737 666.727 321.055C666.779 321.372 666.854 321.646 666.953 321.875V322H665.445C665.372 321.833 665.315 321.612 665.273 321.336C665.232 321.055 665.211 320.794 665.211 320.555ZM665.461 316.875L665.477 317.891H664.016C663.604 317.891 663.237 317.924 662.914 317.992C662.591 318.055 662.32 318.151 662.102 318.281C661.883 318.411 661.716 318.576 661.602 318.773C661.487 318.966 661.43 319.193 661.43 319.453C661.43 319.719 661.49 319.961 661.609 320.18C661.729 320.398 661.909 320.573 662.148 320.703C662.393 320.828 662.693 320.891 663.047 320.891C663.49 320.891 663.88 320.797 664.219 320.609C664.557 320.422 664.826 320.193 665.023 319.922C665.227 319.651 665.336 319.388 665.352 319.133L665.969 319.828C665.932 320.047 665.833 320.289 665.672 320.555C665.51 320.82 665.294 321.076 665.023 321.32C664.758 321.56 664.44 321.76 664.07 321.922C663.706 322.078 663.294 322.156 662.836 322.156C662.263 322.156 661.76 322.044 661.328 321.82C660.901 321.596 660.568 321.297 660.328 320.922C660.094 320.542 659.977 320.117 659.977 319.648C659.977 319.195 660.065 318.797 660.242 318.453C660.419 318.104 660.674 317.815 661.008 317.586C661.341 317.352 661.742 317.174 662.211 317.055C662.68 316.935 663.203 316.875 663.781 316.875H665.461Z" fill="#757575"/>
<path d="M726.938 310.625V322H725.43V310.625H726.938ZM730.906 314.875V322H729.461V313.547H730.867L730.906 314.875ZM733.547 313.5L733.539 314.844C733.419 314.818 733.305 314.802 733.195 314.797C733.091 314.786 732.971 314.781 732.836 314.781C732.503 314.781 732.208 314.833 731.953 314.938C731.698 315.042 731.482 315.188 731.305 315.375C731.128 315.562 730.987 315.786 730.883 316.047C730.784 316.302 730.719 316.583 730.688 316.891L730.281 317.125C730.281 316.615 730.331 316.135 730.43 315.688C730.534 315.24 730.693 314.844 730.906 314.5C731.12 314.151 731.391 313.88 731.719 313.688C732.052 313.49 732.448 313.391 732.906 313.391C733.01 313.391 733.13 313.404 733.266 313.43C733.401 313.451 733.495 313.474 733.547 313.5ZM739.555 320.555V316.203C739.555 315.87 739.487 315.581 739.352 315.336C739.221 315.086 739.023 314.893 738.758 314.758C738.492 314.622 738.164 314.555 737.773 314.555C737.409 314.555 737.089 314.617 736.812 314.742C736.542 314.867 736.328 315.031 736.172 315.234C736.021 315.438 735.945 315.656 735.945 315.891H734.5C734.5 315.589 734.578 315.289 734.734 314.992C734.891 314.695 735.115 314.427 735.406 314.188C735.703 313.943 736.057 313.75 736.469 313.609C736.885 313.464 737.349 313.391 737.859 313.391C738.474 313.391 739.016 313.495 739.484 313.703C739.958 313.911 740.328 314.227 740.594 314.648C740.865 315.065 741 315.589 741 316.219V320.156C741 320.438 741.023 320.737 741.07 321.055C741.122 321.372 741.198 321.646 741.297 321.875V322H739.789C739.716 321.833 739.659 321.612 739.617 321.336C739.576 321.055 739.555 320.794 739.555 320.555ZM739.805 316.875L739.82 317.891H738.359C737.948 317.891 737.581 317.924 737.258 317.992C736.935 318.055 736.664 318.151 736.445 318.281C736.227 318.411 736.06 318.576 735.945 318.773C735.831 318.966 735.773 319.193 735.773 319.453C735.773 319.719 735.833 319.961 735.953 320.18C736.073 320.398 736.253 320.573 736.492 320.703C736.737 320.828 737.036 320.891 737.391 320.891C737.833 320.891 738.224 320.797 738.562 320.609C738.901 320.422 739.169 320.193 739.367 319.922C739.57 319.651 739.68 319.388 739.695 319.133L740.312 319.828C740.276 320.047 740.177 320.289 740.016 320.555C739.854 320.82 739.638 321.076 739.367 321.32C739.102 321.56 738.784 321.76 738.414 321.922C738.049 322.078 737.638 322.156 737.18 322.156C736.607 322.156 736.104 322.044 735.672 321.82C735.245 321.596 734.911 321.297 734.672 320.922C734.438 320.542 734.32 320.117 734.32 319.648C734.32 319.195 734.409 318.797 734.586 318.453C734.763 318.104 735.018 317.815 735.352 317.586C735.685 317.352 736.086 317.174 736.555 317.055C737.023 316.935 737.547 316.875 738.125 316.875H739.805ZM744.719 315.352V322H743.273V313.547H744.641L744.719 315.352ZM744.375 317.453L743.773 317.43C743.779 316.852 743.865 316.318 744.031 315.828C744.198 315.333 744.432 314.904 744.734 314.539C745.036 314.174 745.396 313.893 745.812 313.695C746.234 313.492 746.701 313.391 747.211 313.391C747.628 313.391 748.003 313.448 748.336 313.562C748.669 313.672 748.953 313.849 749.188 314.094C749.427 314.339 749.609 314.656 749.734 315.047C749.859 315.432 749.922 315.904 749.922 316.461V322H748.469V316.445C748.469 316.003 748.404 315.648 748.273 315.383C748.143 315.112 747.953 314.917 747.703 314.797C747.453 314.672 747.146 314.609 746.781 314.609C746.422 314.609 746.094 314.685 745.797 314.836C745.505 314.987 745.253 315.195 745.039 315.461C744.831 315.727 744.667 316.031 744.547 316.375C744.432 316.714 744.375 317.073 744.375 317.453Z" fill="#757575"/>
<path d="M804.828 310.625V322H803.32V310.625H804.828ZM809.594 315.742V316.977H804.5V315.742H809.594ZM810.367 310.625V311.859H804.5V310.625H810.367ZM813.188 314.875V322H811.742V313.547H813.148L813.188 314.875ZM815.828 313.5L815.82 314.844C815.701 314.818 815.586 314.802 815.477 314.797C815.372 314.786 815.253 314.781 815.117 314.781C814.784 314.781 814.49 314.833 814.234 314.938C813.979 315.042 813.763 315.188 813.586 315.375C813.409 315.562 813.268 315.786 813.164 316.047C813.065 316.302 813 316.583 812.969 316.891L812.562 317.125C812.562 316.615 812.612 316.135 812.711 315.688C812.815 315.24 812.974 314.844 813.188 314.5C813.401 314.151 813.672 313.88 814 313.688C814.333 313.49 814.729 313.391 815.188 313.391C815.292 313.391 815.411 313.404 815.547 313.43C815.682 313.451 815.776 313.474 815.828 313.5ZM821.836 320.555V316.203C821.836 315.87 821.768 315.581 821.633 315.336C821.503 315.086 821.305 314.893 821.039 314.758C820.773 314.622 820.445 314.555 820.055 314.555C819.69 314.555 819.37 314.617 819.094 314.742C818.823 314.867 818.609 315.031 818.453 315.234C818.302 315.438 818.227 315.656 818.227 315.891H816.781C816.781 315.589 816.859 315.289 817.016 314.992C817.172 314.695 817.396 314.427 817.688 314.188C817.984 313.943 818.339 313.75 818.75 313.609C819.167 313.464 819.63 313.391 820.141 313.391C820.755 313.391 821.297 313.495 821.766 313.703C822.24 313.911 822.609 314.227 822.875 314.648C823.146 315.065 823.281 315.589 823.281 316.219V320.156C823.281 320.438 823.305 320.737 823.352 321.055C823.404 321.372 823.479 321.646 823.578 321.875V322H822.07C821.997 321.833 821.94 321.612 821.898 321.336C821.857 321.055 821.836 320.794 821.836 320.555ZM822.086 316.875L822.102 317.891H820.641C820.229 317.891 819.862 317.924 819.539 317.992C819.216 318.055 818.945 318.151 818.727 318.281C818.508 318.411 818.341 318.576 818.227 318.773C818.112 318.966 818.055 319.193 818.055 319.453C818.055 319.719 818.115 319.961 818.234 320.18C818.354 320.398 818.534 320.573 818.773 320.703C819.018 320.828 819.318 320.891 819.672 320.891C820.115 320.891 820.505 320.797 820.844 320.609C821.182 320.422 821.451 320.193 821.648 319.922C821.852 319.651 821.961 319.388 821.977 319.133L822.594 319.828C822.557 320.047 822.458 320.289 822.297 320.555C822.135 320.82 821.919 321.076 821.648 321.32C821.383 321.56 821.065 321.76 820.695 321.922C820.331 322.078 819.919 322.156 819.461 322.156C818.888 322.156 818.385 322.044 817.953 321.82C817.526 321.596 817.193 321.297 816.953 320.922C816.719 320.542 816.602 320.117 816.602 319.648C816.602 319.195 816.69 318.797 816.867 318.453C817.044 318.104 817.299 317.815 817.633 317.586C817.966 317.352 818.367 317.174 818.836 317.055C819.305 316.935 819.828 316.875 820.406 316.875H822.086ZM827 315.352V322H825.555V313.547H826.922L827 315.352ZM826.656 317.453L826.055 317.43C826.06 316.852 826.146 316.318 826.312 315.828C826.479 315.333 826.714 314.904 827.016 314.539C827.318 314.174 827.677 313.893 828.094 313.695C828.516 313.492 828.982 313.391 829.492 313.391C829.909 313.391 830.284 313.448 830.617 313.562C830.951 313.672 831.234 313.849 831.469 314.094C831.708 314.339 831.891 314.656 832.016 315.047C832.141 315.432 832.203 315.904 832.203 316.461V322H830.75V316.445C830.75 316.003 830.685 315.648 830.555 315.383C830.424 315.112 830.234 314.917 829.984 314.797C829.734 314.672 829.427 314.609 829.062 314.609C828.703 314.609 828.375 314.685 828.078 314.836C827.786 314.987 827.534 315.195 827.32 315.461C827.112 315.727 826.948 316.031 826.828 316.375C826.714 316.714 826.656 317.073 826.656 317.453ZM837.781 320.969C838.125 320.969 838.443 320.898 838.734 320.758C839.026 320.617 839.266 320.424 839.453 320.18C839.641 319.93 839.747 319.646 839.773 319.328H841.148C841.122 319.828 840.953 320.294 840.641 320.727C840.333 321.154 839.93 321.5 839.43 321.766C838.93 322.026 838.38 322.156 837.781 322.156C837.146 322.156 836.591 322.044 836.117 321.82C835.648 321.596 835.258 321.289 834.945 320.898C834.638 320.508 834.406 320.06 834.25 319.555C834.099 319.044 834.023 318.505 834.023 317.938V317.609C834.023 317.042 834.099 316.505 834.25 316C834.406 315.49 834.638 315.039 834.945 314.648C835.258 314.258 835.648 313.951 836.117 313.727C836.591 313.503 837.146 313.391 837.781 313.391C838.443 313.391 839.021 313.526 839.516 313.797C840.01 314.062 840.398 314.427 840.68 314.891C840.966 315.349 841.122 315.87 841.148 316.453H839.773C839.747 316.104 839.648 315.789 839.477 315.508C839.31 315.227 839.081 315.003 838.789 314.836C838.503 314.664 838.167 314.578 837.781 314.578C837.339 314.578 836.966 314.667 836.664 314.844C836.367 315.016 836.13 315.25 835.953 315.547C835.781 315.839 835.656 316.164 835.578 316.523C835.505 316.878 835.469 317.24 835.469 317.609V317.938C835.469 318.307 835.505 318.672 835.578 319.031C835.651 319.391 835.773 319.716 835.945 320.008C836.122 320.299 836.359 320.534 836.656 320.711C836.958 320.883 837.333 320.969 837.781 320.969ZM846.281 322.156C845.693 322.156 845.159 322.057 844.68 321.859C844.206 321.656 843.797 321.372 843.453 321.008C843.115 320.643 842.854 320.211 842.672 319.711C842.49 319.211 842.398 318.664 842.398 318.07V317.742C842.398 317.055 842.5 316.443 842.703 315.906C842.906 315.365 843.182 314.906 843.531 314.531C843.88 314.156 844.276 313.872 844.719 313.68C845.161 313.487 845.62 313.391 846.094 313.391C846.698 313.391 847.219 313.495 847.656 313.703C848.099 313.911 848.461 314.203 848.742 314.578C849.023 314.948 849.232 315.385 849.367 315.891C849.503 316.391 849.57 316.938 849.57 317.531V318.18H843.258V317H848.125V316.891C848.104 316.516 848.026 316.151 847.891 315.797C847.76 315.443 847.552 315.151 847.266 314.922C846.979 314.693 846.589 314.578 846.094 314.578C845.766 314.578 845.464 314.648 845.188 314.789C844.911 314.924 844.674 315.128 844.477 315.398C844.279 315.669 844.125 316 844.016 316.391C843.906 316.781 843.852 317.232 843.852 317.742V318.07C843.852 318.471 843.906 318.849 844.016 319.203C844.13 319.552 844.294 319.859 844.508 320.125C844.727 320.391 844.99 320.599 845.297 320.75C845.609 320.901 845.964 320.977 846.359 320.977C846.87 320.977 847.302 320.872 847.656 320.664C848.01 320.456 848.32 320.177 848.586 319.828L849.461 320.523C849.279 320.799 849.047 321.062 848.766 321.312C848.484 321.562 848.138 321.766 847.727 321.922C847.32 322.078 846.839 322.156 846.281 322.156Z" fill="#757575"/>
<path d="M466.172 310.625H467.672V318.32C467.672 319.174 467.482 319.885 467.102 320.453C466.721 321.021 466.216 321.448 465.586 321.734C464.961 322.016 464.281 322.156 463.547 322.156C462.776 322.156 462.078 322.016 461.453 321.734C460.833 321.448 460.341 321.021 459.977 320.453C459.617 319.885 459.438 319.174 459.438 318.32V310.625H460.93V318.32C460.93 318.914 461.039 319.404 461.258 319.789C461.477 320.174 461.781 320.461 462.172 320.648C462.568 320.836 463.026 320.93 463.547 320.93C464.073 320.93 464.531 320.836 464.922 320.648C465.318 320.461 465.625 320.174 465.844 319.789C466.062 319.404 466.172 318.914 466.172 318.32V310.625ZM476.102 319.125C476.102 318.859 476.06 318.625 475.977 318.422C475.898 318.214 475.758 318.026 475.555 317.859C475.357 317.693 475.081 317.534 474.727 317.383C474.378 317.232 473.935 317.078 473.398 316.922C472.836 316.755 472.328 316.57 471.875 316.367C471.422 316.159 471.034 315.922 470.711 315.656C470.388 315.391 470.141 315.086 469.969 314.742C469.797 314.398 469.711 314.005 469.711 313.562C469.711 313.12 469.802 312.711 469.984 312.336C470.167 311.961 470.427 311.635 470.766 311.359C471.109 311.078 471.518 310.859 471.992 310.703C472.466 310.547 472.995 310.469 473.578 310.469C474.432 310.469 475.156 310.633 475.75 310.961C476.349 311.284 476.805 311.708 477.117 312.234C477.43 312.755 477.586 313.312 477.586 313.906H476.086C476.086 313.479 475.995 313.102 475.812 312.773C475.63 312.44 475.354 312.18 474.984 311.992C474.615 311.799 474.146 311.703 473.578 311.703C473.042 311.703 472.599 311.784 472.25 311.945C471.901 312.107 471.641 312.326 471.469 312.602C471.302 312.878 471.219 313.193 471.219 313.547C471.219 313.786 471.268 314.005 471.367 314.203C471.471 314.396 471.63 314.576 471.844 314.742C472.062 314.909 472.339 315.062 472.672 315.203C473.01 315.344 473.414 315.479 473.883 315.609C474.529 315.792 475.086 315.995 475.555 316.219C476.023 316.443 476.409 316.695 476.711 316.977C477.018 317.253 477.245 317.568 477.391 317.922C477.542 318.271 477.617 318.667 477.617 319.109C477.617 319.573 477.523 319.992 477.336 320.367C477.148 320.742 476.88 321.062 476.531 321.328C476.182 321.594 475.763 321.799 475.273 321.945C474.789 322.086 474.247 322.156 473.648 322.156C473.122 322.156 472.604 322.083 472.094 321.938C471.589 321.792 471.128 321.573 470.711 321.281C470.299 320.99 469.969 320.63 469.719 320.203C469.474 319.771 469.352 319.271 469.352 318.703H470.852C470.852 319.094 470.927 319.43 471.078 319.711C471.229 319.987 471.435 320.216 471.695 320.398C471.961 320.581 472.26 320.716 472.594 320.805C472.932 320.888 473.284 320.93 473.648 320.93C474.174 320.93 474.62 320.857 474.984 320.711C475.349 320.565 475.625 320.357 475.812 320.086C476.005 319.815 476.102 319.495 476.102 319.125ZM483.75 311.633L479.984 322H478.445L482.781 310.625H483.773L483.75 311.633ZM486.906 322L483.133 311.633L483.109 310.625H484.102L488.453 322H486.906ZM486.711 317.789V319.023H480.32V317.789H486.711Z" fill="#757575"/>
<rect x="546" y="126" width="32" height="141" rx="16" fill="#DFD3C3"/>
<rect x="457" y="166" width="32" height="101" rx="16" fill="#DFD3C3"/>
<rect x="810" y="166" width="32" height="101" rx="16" fill="#DFD3C3"/>
<rect x="370" width="32" height="267" rx="16" fill="#DFD3C3"/>
<rect x="722" width="32" height="267" rx="16" fill="#DFD3C3"/>
<rect x="282" y="103" width="32" height="164" rx="16" fill="#DFD3C3"/>
<rect x="634" y="103" width="32" height="164" rx="16" fill="#DFD3C3"/>
<rect x="194" y="17" width="32" height="250" rx="16" fill="#DFD3C3"/>
</svg>
