<svg width="21" height="20" viewBox="0 0 21 20" fill="none" xmlns="http://www.w3.org/2000/svg">
<path d="M10.2354 1.6665C5.59422 1.6665 1.83203 5.39734 1.83203 9.99984C1.83203 14.6023 5.59422 18.3332 10.2354 18.3332C14.8766 18.3332 18.6388 14.6023 18.6388 9.99984C18.6388 5.39734 14.8766 1.6665 10.2354 1.6665Z" fill="url(#paint0_linear_96_10125)"/>
<path d="M11.3729 12.2088H13.5477L13.8893 10.018H11.3729V8.82046C11.3729 7.91046 11.6729 7.10338 12.5313 7.10338H13.9108V5.19171C13.6683 5.15921 13.1557 5.08838 12.1872 5.08838C10.1645 5.08838 8.97883 6.14755 8.97883 8.56088V10.0184H6.89941V12.2092H8.97841V18.2309C9.39017 18.2917 9.8074 18.3334 10.2355 18.3334C10.6225 18.3334 11.0003 18.2984 11.3729 18.2484V12.2088Z" fill="white"/>
<defs>
<linearGradient id="paint0_linear_96_10125" x1="4.3501" y1="4.16359" x2="17.1088" y2="17.0295" gradientUnits="userSpaceOnUse">
<stop stop-color="#2AA4F4"/>
<stop offset="1" stop-color="#007AD9"/>
</linearGradient>
</defs>
</svg>
