<svg width="21" height="20" viewBox="0 0 21 20" fill="none" xmlns="http://www.w3.org/2000/svg">
<path d="M17.7982 5.17875C17.2423 5.42292 16.6444 5.58583 16.0138 5.66292C16.6549 5.28542 17.1482 4.68333 17.3797 3.97208C16.7797 4.32083 16.115 4.57708 15.4079 4.71208C14.8432 4.11833 14.0377 3.75 13.1453 3.75C11.431 3.75 10.0415 5.11583 10.0415 6.8C10.0415 7.03833 10.0696 7.27042 10.1226 7.49583C7.54359 7.3675 5.25619 6.15167 3.72594 4.30667C3.45703 4.7575 3.30577 5.28542 3.30577 5.8425C3.30577 6.90125 3.85241 7.83333 4.68602 8.3825C4.1772 8.36708 3.69821 8.22667 3.27888 8.00167C3.27888 8.01083 3.27888 8.02458 3.27888 8.0375C3.27888 9.51708 4.34905 10.7492 5.76754 11.0296C5.50829 11.1 5.23434 11.1392 4.95199 11.1392C4.75157 11.1392 4.55619 11.1167 4.36712 11.0829C4.76207 12.2921 5.90787 13.1758 7.26544 13.2021C6.20325 14.0188 4.86544 14.5079 3.41081 14.5079C3.15955 14.5079 2.91376 14.4938 2.6709 14.4646C4.04527 15.3275 5.6772 15.8333 7.42888 15.8333C13.1369 15.8333 16.2596 11.185 16.2596 7.1525C16.2596 7.02042 16.2554 6.88875 16.249 6.75875C16.8583 6.33208 17.3835 5.79375 17.7982 5.17875Z" fill="#03A9F4"/>
</svg>
