<svg width="20" height="20" viewBox="0 0 20 20" fill="none" xmlns="http://www.w3.org/2000/svg">
<path d="M14.1735 17.4956L5.84019 17.5035C4.00686 17.5052 2.50561 16.0069 2.50352 14.1735L2.49561 5.84019C2.49394 4.00686 3.99227 2.50561 5.82561 2.50352L14.1589 2.49561C15.9923 2.49394 17.4935 3.99227 17.4956 5.82561L17.5035 14.1589C17.5056 15.9927 16.0069 17.4939 14.1735 17.4956Z" fill="url(#paint0_radial_96_10136)"/>
<path d="M14.1735 17.4956L5.84019 17.5035C4.00686 17.5052 2.50561 16.0069 2.50352 14.1735L2.49561 5.84019C2.49394 4.00686 3.99227 2.50561 5.82561 2.50352L14.1589 2.49561C15.9923 2.49394 17.4935 3.99227 17.4956 5.82561L17.5035 14.1589C17.5056 15.9927 16.0069 17.4939 14.1735 17.4956Z" fill="url(#paint1_radial_96_10136)"/>
<path d="M10.0002 12.9168C8.39225 12.9168 7.0835 11.6085 7.0835 10.0002C7.0835 8.39183 8.39225 7.0835 10.0002 7.0835C11.6081 7.0835 12.9168 8.39183 12.9168 10.0002C12.9168 11.6085 11.6081 12.9168 10.0002 12.9168ZM10.0002 7.91683C8.85141 7.91683 7.91683 8.85141 7.91683 10.0002C7.91683 11.1489 8.85141 12.0835 10.0002 12.0835C11.1489 12.0835 12.0835 11.1489 12.0835 10.0002C12.0835 8.85141 11.1489 7.91683 10.0002 7.91683Z" fill="white"/>
<path d="M13.125 7.5C13.4702 7.5 13.75 7.22018 13.75 6.875C13.75 6.52982 13.4702 6.25 13.125 6.25C12.7798 6.25 12.5 6.52982 12.5 6.875C12.5 7.22018 12.7798 7.5 13.125 7.5Z" fill="white"/>
<path d="M12.5002 15.4168H7.50016C5.89225 15.4168 4.5835 14.1085 4.5835 12.5002V7.50016C4.5835 5.89183 5.89225 4.5835 7.50016 4.5835H12.5002C14.1081 4.5835 15.4168 5.89183 15.4168 7.50016V12.5002C15.4168 14.1085 14.1081 15.4168 12.5002 15.4168ZM7.50016 5.41683C6.35141 5.41683 5.41683 6.35141 5.41683 7.50016V12.5002C5.41683 13.6489 6.35141 14.5835 7.50016 14.5835H12.5002C13.6489 14.5835 14.5835 13.6489 14.5835 12.5002V7.50016C14.5835 6.35141 13.6489 5.41683 12.5002 5.41683H7.50016Z" fill="white"/>
<defs>
<radialGradient id="paint0_radial_96_10136" cx="0" cy="0" r="1" gradientUnits="userSpaceOnUse" gradientTransform="translate(8.07477 17.5144) scale(18.7079 18.7079)">
<stop stop-color="#FFDD55"/>
<stop offset="0.328" stop-color="#FF543F"/>
<stop offset="0.348" stop-color="#FC5245"/>
<stop offset="0.504" stop-color="#E64771"/>
<stop offset="0.643" stop-color="#D53E91"/>
<stop offset="0.761" stop-color="#CC39A4"/>
<stop offset="0.841" stop-color="#C837AB"/>
</radialGradient>
<radialGradient id="paint1_radial_96_10136" cx="0" cy="0" r="1" gradientUnits="userSpaceOnUse" gradientTransform="translate(4.91061 2.30823) scale(12.4221 8.27683)">
<stop stop-color="#4168C9"/>
<stop offset="0.999" stop-color="#4168C9" stop-opacity="0"/>
</radialGradient>
</defs>
</svg>
